<?xml version="1.0" encoding="UTF-8"?>
<svg xmlns="http://www.w3.org/2000/svg" xmlns:xlink="http://www.w3.org/1999/xlink" width="375pt" height="374.999991pt" viewBox="0 0 375 374.999991" version="1.2">
<defs>
<clipPath id="clip1">
  <path d="M 153 152 L 223 152 L 223 222 L 153 222 Z M 153 152 "/>
</clipPath>
<clipPath id="clip2">
  <path d="M 187.964844 152.609375 L 222.4375 187.082031 L 187.964844 221.554688 L 153.496094 187.082031 Z M 187.964844 152.609375 "/>
</clipPath>
<clipPath id="clip3">
  <path d="M 187.964844 152.609375 L 222.4375 187.082031 L 187.964844 221.554688 L 153.496094 187.082031 Z M 187.964844 152.609375 "/>
</clipPath>
<clipPath id="clip4">
  <path d="M 187.964844 152.609375 L 222.257812 186.902344 L 187.964844 221.191406 L 153.675781 186.902344 Z M 187.964844 152.609375 "/>
</clipPath>
<clipPath id="clip5">
  <path d="M 177 112.5 L 199 112.5 L 199 134 L 177 134 Z M 177 112.5 "/>
</clipPath>
<clipPath id="clip6">
  <path d="M 112.96875 177 L 134 177 L 134 198 L 112.96875 198 Z M 112.96875 177 "/>
</clipPath>
<clipPath id="clip7">
  <path d="M 177 241 L 199 241 L 199 262.5 L 177 262.5 Z M 177 241 "/>
</clipPath>
<clipPath id="clip8">
  <path d="M 242 177 L 262.96875 177 L 262.96875 198 L 242 198 Z M 242 177 "/>
</clipPath>
</defs>
<g id="surface1">
<g clip-path="url(#clip1)" clip-rule="nonzero">
<g clip-path="url(#clip2)" clip-rule="nonzero">
<g clip-path="url(#clip3)" clip-rule="nonzero">
<g clip-path="url(#clip4)" clip-rule="nonzero">
<path style=" stroke:none;fill-rule:nonzero;fill:rgb(100%,100%,100%);fill-opacity:1;" d="M 187.964844 152.609375 L 222.257812 186.902344 L 187.964844 221.191406 L 153.675781 186.902344 Z M 187.964844 152.609375 "/>
</g>
</g>
</g>
</g>
<path style=" stroke:none;fill-rule:nonzero;fill:rgb(65.098572%,78.039551%,16.468811%);fill-opacity:1;" d="M 237.105469 187.5 C 237.105469 160.363281 215.105469 138.363281 187.96875 138.363281 C 160.832031 138.363281 138.832031 160.363281 138.832031 187.5 C 138.832031 214.636719 160.832031 236.636719 187.96875 236.636719 C 215.105469 236.636719 237.105469 214.636719 237.105469 187.5 "/>
<path style=" stroke:none;fill-rule:nonzero;fill:rgb(40.779114%,73.728943%,25.099182%);fill-opacity:1;" d="M 193.140625 143.535156 L 182.796875 143.535156 L 182.796875 125.429688 L 193.140625 125.429688 L 193.140625 143.535156 "/>
<g clip-path="url(#clip5)" clip-rule="nonzero">
<path style=" stroke:none;fill-rule:nonzero;fill:rgb(65.098572%,78.039551%,16.468811%);fill-opacity:1;" d="M 198.3125 122.84375 C 198.3125 117.132812 193.679688 112.5 187.96875 112.5 C 182.253906 112.5 177.625 117.132812 177.625 122.84375 C 177.625 128.558594 182.253906 133.191406 187.96875 133.191406 C 193.679688 133.191406 198.3125 128.558594 198.3125 122.84375 "/>
</g>
<path style=" stroke:none;fill-rule:nonzero;fill:rgb(40.779114%,73.728943%,25.099182%);fill-opacity:1;" d="M 170.464844 146.839844 L 161.507812 152.011719 L 152.453125 136.332031 L 161.414062 131.160156 L 170.464844 146.839844 "/>
<path style=" stroke:none;fill-rule:nonzero;fill:rgb(65.098572%,78.039551%,16.468811%);fill-opacity:1;" d="M 164.601562 126.335938 C 161.742188 121.386719 155.417969 119.691406 150.46875 122.546875 C 145.519531 125.40625 143.824219 131.730469 146.679688 136.679688 C 149.539062 141.628906 155.867188 143.324219 160.8125 140.464844 C 165.761719 137.609375 167.457031 131.28125 164.601562 126.335938 "/>
<path style=" stroke:none;fill-rule:nonzero;fill:rgb(40.779114%,73.728943%,25.099182%);fill-opacity:1;" d="M 152.480469 161.039062 L 147.308594 169.996094 L 131.628906 160.945312 L 136.800781 151.988281 L 152.480469 161.039062 "/>
<path style=" stroke:none;fill-rule:nonzero;fill:rgb(65.098572%,78.039551%,16.468811%);fill-opacity:1;" d="M 137.148438 146.210938 C 132.199219 143.355469 125.871094 145.050781 123.015625 150 C 120.160156 154.949219 121.855469 161.273438 126.800781 164.132812 C 131.75 166.988281 138.078125 165.292969 140.933594 160.34375 C 143.789062 155.398438 142.097656 149.070312 137.148438 146.210938 "/>
<path style=" stroke:none;fill-rule:nonzero;fill:rgb(40.779114%,73.728943%,25.099182%);fill-opacity:1;" d="M 144.003906 182.328125 L 144.003906 192.671875 L 125.898438 192.671875 L 125.898438 182.328125 L 144.003906 182.328125 "/>
<g clip-path="url(#clip6)" clip-rule="nonzero">
<path style=" stroke:none;fill-rule:nonzero;fill:rgb(65.098572%,78.039551%,16.468811%);fill-opacity:1;" d="M 123.3125 177.15625 C 117.601562 177.15625 112.96875 181.785156 112.96875 187.5 C 112.96875 193.210938 117.601562 197.84375 123.3125 197.84375 C 129.027344 197.84375 133.65625 193.210938 133.65625 187.5 C 133.65625 181.785156 129.027344 177.15625 123.3125 177.15625 "/>
</g>
<path style=" stroke:none;fill-rule:nonzero;fill:rgb(40.779114%,73.728943%,25.099182%);fill-opacity:1;" d="M 147.308594 205.003906 L 152.480469 213.960938 L 136.800781 223.011719 L 131.628906 214.054688 L 147.308594 205.003906 "/>
<path style=" stroke:none;fill-rule:nonzero;fill:rgb(65.098572%,78.039551%,16.468811%);fill-opacity:1;" d="M 126.800781 210.867188 C 121.855469 213.726562 120.160156 220.050781 123.015625 225 C 125.871094 229.949219 132.199219 231.644531 137.148438 228.785156 C 142.097656 225.929688 143.789062 219.601562 140.933594 214.65625 C 138.078125 209.707031 131.75 208.011719 126.800781 210.867188 "/>
<path style=" stroke:none;fill-rule:nonzero;fill:rgb(40.779114%,73.728943%,25.099182%);fill-opacity:1;" d="M 161.507812 222.988281 L 170.464844 228.160156 L 161.414062 243.839844 L 152.453125 238.667969 L 161.507812 222.988281 "/>
<path style=" stroke:none;fill-rule:nonzero;fill:rgb(65.098572%,78.039551%,16.468811%);fill-opacity:1;" d="M 146.679688 238.320312 C 143.824219 243.269531 145.519531 249.59375 150.46875 252.453125 C 155.417969 255.308594 161.742188 253.613281 164.601562 248.667969 C 167.457031 243.71875 165.761719 237.390625 160.8125 234.535156 C 155.867188 231.675781 149.539062 233.371094 146.679688 238.320312 "/>
<path style=" stroke:none;fill-rule:nonzero;fill:rgb(40.779114%,73.728943%,25.099182%);fill-opacity:1;" d="M 182.796875 231.464844 L 193.140625 231.464844 L 193.140625 249.570312 L 182.796875 249.570312 L 182.796875 231.464844 "/>
<g clip-path="url(#clip7)" clip-rule="nonzero">
<path style=" stroke:none;fill-rule:nonzero;fill:rgb(65.098572%,78.039551%,16.468811%);fill-opacity:1;" d="M 177.625 252.15625 C 177.625 257.867188 182.253906 262.5 187.96875 262.5 C 193.679688 262.5 198.3125 257.867188 198.3125 252.15625 C 198.3125 246.441406 193.679688 241.808594 187.96875 241.808594 C 182.253906 241.808594 177.625 246.441406 177.625 252.15625 "/>
</g>
<path style=" stroke:none;fill-rule:nonzero;fill:rgb(40.779114%,73.728943%,25.099182%);fill-opacity:1;" d="M 205.472656 228.160156 L 214.429688 222.988281 L 223.480469 238.667969 L 214.523438 243.839844 L 205.472656 228.160156 "/>
<path style=" stroke:none;fill-rule:nonzero;fill:rgb(65.098572%,78.039551%,16.468811%);fill-opacity:1;" d="M 211.335938 248.667969 C 214.195312 253.613281 220.519531 255.308594 225.46875 252.453125 C 230.417969 249.59375 232.113281 243.269531 229.253906 238.320312 C 226.398438 233.371094 220.070312 231.675781 215.125 234.535156 C 210.175781 237.390625 208.480469 243.71875 211.335938 248.667969 "/>
<path style=" stroke:none;fill-rule:nonzero;fill:rgb(40.779114%,73.728943%,25.099182%);fill-opacity:1;" d="M 223.457031 213.960938 L 228.628906 205.003906 L 244.308594 214.054688 L 239.136719 223.011719 L 223.457031 213.960938 "/>
<path style=" stroke:none;fill-rule:nonzero;fill:rgb(65.098572%,78.039551%,16.468811%);fill-opacity:1;" d="M 238.789062 228.785156 C 243.738281 231.644531 250.0625 229.949219 252.921875 225 C 255.777344 220.050781 254.082031 213.726562 249.132812 210.867188 C 244.1875 208.011719 237.859375 209.707031 235.003906 214.65625 C 232.144531 219.601562 233.839844 225.929688 238.789062 228.785156 "/>
<path style=" stroke:none;fill-rule:nonzero;fill:rgb(40.779114%,73.728943%,25.099182%);fill-opacity:1;" d="M 231.933594 192.671875 L 231.933594 182.328125 L 250.039062 182.328125 L 250.039062 192.671875 L 231.933594 192.671875 "/>
<g clip-path="url(#clip8)" clip-rule="nonzero">
<path style=" stroke:none;fill-rule:nonzero;fill:rgb(65.098572%,78.039551%,16.468811%);fill-opacity:1;" d="M 252.625 197.84375 C 258.335938 197.84375 262.96875 193.210938 262.96875 187.5 C 262.96875 181.785156 258.335938 177.15625 252.625 177.15625 C 246.910156 177.15625 242.277344 181.785156 242.277344 187.5 C 242.277344 193.210938 246.910156 197.84375 252.625 197.84375 "/>
</g>
<path style=" stroke:none;fill-rule:nonzero;fill:rgb(40.779114%,73.728943%,25.099182%);fill-opacity:1;" d="M 228.628906 169.996094 L 223.457031 161.039062 L 239.136719 151.988281 L 244.308594 160.945312 L 228.628906 169.996094 "/>
<path style=" stroke:none;fill-rule:nonzero;fill:rgb(65.098572%,78.039551%,16.468811%);fill-opacity:1;" d="M 249.132812 164.132812 C 254.082031 161.273438 255.777344 154.949219 252.921875 150 C 250.0625 145.050781 243.738281 143.355469 238.789062 146.210938 C 233.839844 149.070312 232.144531 155.398438 235.003906 160.34375 C 237.859375 165.292969 244.1875 166.988281 249.132812 164.132812 "/>
<path style=" stroke:none;fill-rule:nonzero;fill:rgb(40.779114%,73.728943%,25.099182%);fill-opacity:1;" d="M 214.429688 152.011719 L 205.472656 146.839844 L 214.523438 131.160156 L 223.480469 136.332031 L 214.429688 152.011719 "/>
<path style=" stroke:none;fill-rule:nonzero;fill:rgb(65.098572%,78.039551%,16.468811%);fill-opacity:1;" d="M 229.253906 136.679688 C 232.113281 131.730469 230.417969 125.40625 225.46875 122.546875 C 220.519531 119.691406 214.195312 121.386719 211.335938 126.335938 C 208.480469 131.28125 210.175781 137.609375 215.125 140.464844 C 220.070312 143.324219 226.398438 141.628906 229.253906 136.679688 "/>
<path style=" stroke:none;fill-rule:nonzero;fill:rgb(33.329773%,64.309692%,32.159424%);fill-opacity:1;" d="M 198.3125 187.5 C 198.3125 181.785156 193.679688 177.15625 187.96875 177.15625 C 182.253906 177.15625 177.625 181.785156 177.625 187.5 C 177.625 193.210938 182.253906 197.84375 187.96875 197.84375 C 193.679688 197.84375 198.3125 193.210938 198.3125 187.5 "/>
<path style=" stroke:none;fill-rule:nonzero;fill:rgb(33.329773%,64.309692%,32.159424%);fill-opacity:1;" d="M 193.140625 174.570312 L 182.796875 174.570312 L 182.796875 161.636719 L 193.140625 161.636719 L 193.140625 174.570312 "/>
<path style=" stroke:none;fill-rule:nonzero;fill:rgb(40.779114%,73.728943%,25.099182%);fill-opacity:1;" d="M 198.3125 159.050781 C 198.3125 153.339844 193.679688 148.707031 187.96875 148.707031 C 182.253906 148.707031 177.625 153.339844 177.625 159.050781 C 177.625 164.765625 182.253906 169.398438 187.96875 169.398438 C 193.679688 169.398438 198.3125 164.765625 198.3125 159.050781 "/>
<path style=" stroke:none;fill-rule:nonzero;fill:rgb(33.329773%,64.309692%,32.159424%);fill-opacity:1;" d="M 179.355469 176.554688 L 174.183594 185.511719 L 162.984375 179.046875 L 168.15625 170.089844 L 179.355469 176.554688 "/>
<path style=" stroke:none;fill-rule:nonzero;fill:rgb(40.779114%,73.728943%,25.099182%);fill-opacity:1;" d="M 168.503906 164.316406 C 163.554688 161.460938 157.230469 163.15625 154.371094 168.101562 C 151.515625 173.050781 153.210938 179.378906 158.160156 182.234375 C 163.105469 185.09375 169.433594 183.394531 172.289062 178.449219 C 175.148438 173.5 173.453125 167.175781 168.503906 164.316406 "/>
<path style=" stroke:none;fill-rule:nonzero;fill:rgb(33.329773%,64.309692%,32.159424%);fill-opacity:1;" d="M 174.183594 189.488281 L 179.355469 198.445312 L 168.15625 204.910156 L 162.984375 195.953125 L 174.183594 189.488281 "/>
<path style=" stroke:none;fill-rule:nonzero;fill:rgb(40.779114%,73.728943%,25.099182%);fill-opacity:1;" d="M 158.160156 192.765625 C 153.210938 195.621094 151.515625 201.949219 154.371094 206.898438 C 157.230469 211.84375 163.554688 213.539062 168.503906 210.683594 C 173.453125 207.824219 175.148438 201.5 172.289062 196.550781 C 169.433594 191.605469 163.105469 189.90625 158.160156 192.765625 "/>
<path style=" stroke:none;fill-rule:nonzero;fill:rgb(33.329773%,64.309692%,32.159424%);fill-opacity:1;" d="M 182.796875 200.429688 L 193.140625 200.429688 L 193.140625 213.363281 L 182.796875 213.363281 L 182.796875 200.429688 "/>
<path style=" stroke:none;fill-rule:nonzero;fill:rgb(40.779114%,73.728943%,25.099182%);fill-opacity:1;" d="M 177.625 215.949219 C 177.625 221.660156 182.253906 226.292969 187.96875 226.292969 C 193.679688 226.292969 198.3125 221.660156 198.3125 215.949219 C 198.3125 210.234375 193.679688 205.601562 187.96875 205.601562 C 182.253906 205.601562 177.625 210.234375 177.625 215.949219 "/>
<path style=" stroke:none;fill-rule:nonzero;fill:rgb(33.329773%,64.309692%,32.159424%);fill-opacity:1;" d="M 196.582031 198.445312 L 201.753906 189.488281 L 212.953125 195.953125 L 207.777344 204.910156 L 196.582031 198.445312 "/>
<path style=" stroke:none;fill-rule:nonzero;fill:rgb(40.779114%,73.728943%,25.099182%);fill-opacity:1;" d="M 207.433594 210.683594 C 212.378906 213.539062 218.707031 211.84375 221.5625 206.898438 C 224.421875 201.949219 222.726562 195.621094 217.777344 192.765625 C 212.832031 189.90625 206.503906 191.605469 203.644531 196.550781 C 200.789062 201.5 202.484375 207.824219 207.433594 210.683594 "/>
<path style=" stroke:none;fill-rule:nonzero;fill:rgb(33.329773%,64.309692%,32.159424%);fill-opacity:1;" d="M 201.753906 185.511719 L 196.582031 176.554688 L 207.777344 170.089844 L 212.953125 179.046875 L 201.753906 185.511719 "/>
<path style=" stroke:none;fill-rule:nonzero;fill:rgb(40.779114%,73.728943%,25.099182%);fill-opacity:1;" d="M 217.777344 182.234375 C 222.726562 179.378906 224.421875 173.050781 221.5625 168.101562 C 218.707031 163.15625 212.378906 161.460938 207.433594 164.316406 C 202.484375 167.175781 200.789062 173.5 203.644531 178.449219 C 206.503906 183.394531 212.832031 185.09375 217.777344 182.234375 "/>
</g>
</svg>
